Coordinates
version=1
nRows=11
nColumns=36
inDegrees=yes

Units are S.I. units (second, meters, Newtons, ...)
If the header above contains a line with 'inDegrees', this indicates whether rotational values are in degrees (yes) or radians (no).

endheader
time	pelvis_tilt	pelvis_list	pelvis_rotation	pelvis_tx	pelvis_ty	pelvis_tz	hip_flexion_r	hip_adduction_r	hip_rotation_r	knee_angle_r	knee_angle_r_beta	ankle_angle_r	subtalar_angle_r	mtp_angle_r	hip_flexion_l	hip_adduction_l	hip_rotation_l	knee_angle_l	knee_angle_l_beta	ankle_angle_l	subtalar_angle_l	mtp_angle_l	lumbar_extension	lumbar_bending	lumbar_rotation	arm_flex_r	arm_add_r	arm_rot_r	elbow_flex_r	pro_sup_r	arm_flex_l	arm_add_l	arm_rot_l	elbow_flex_l	pro_sup_l
     30.00000000	     -0.76606190	      0.27044846	      4.59678011	      0.54464908	      1.00380137	      0.86718638	    -14.88303396	      1.13944830	     -3.70100238	     12.65085497	      0.22079907	     17.76646932	     -3.09691900	     -7.49999987	     34.91226943	      1.37470601	      4.28479661	     32.27677325	      0.56333597	      7.22026277	     -2.72133606	     -7.49999987	    -15.52598168	      3.68440091	      2.14186686	     13.27070091	    -14.08442754	      5.93767686	     33.09944084	     74.49780139	     -2.44783312	     -6.24757603	     -1.58001986	     21.49243087	     69.16179784
     30.01666670	     -0.92748736	      0.90391246	      4.81631536	      0.55080489	      1.00387269	      0.86235574	    -14.89012176	      0.16214246	     -3.61608815	     14.66576548	      0.25596589	     15.70435500	     -4.33644430	     -7.49999987	     34.43746966	      2.50203225	      4.62084004	     33.82721537	      0.59039628	      7.39389379	     -3.68768472	     -7.49999987	    -15.04696695	      3.02314078	      2.13782286	     12.09605174	    -13.89943290	      5.63605150	     32.28151281	     73.73955794	     -2.34758063	     -6.14670956	     -1.33170767	     21.51995097	     68.82018354
     30.03333330	     -1.02628187	      1.59968785	      4.91621050	      0.55756268	      1.00511994	      0.85726408	    -14.84536252	     -0.87441544	     -3.23877827	     16.78625958	      0.29297550	     13.17965441	     -5.86000710	     -7.49999987	     33.69076488	      3.63090479	      4.88125734	     35.17330997	      0.61389007	      7.81353759	     -4.72790653	     -7.49999987	    -14.55531935	      2.28972820	      2.14100987	     11.01011154	    -13.59916972	      5.26481692	     31.39555855	     73.21308783	     -2.26360285	     -6.07162991	     -1.45569619	     21.68106805	     68.47671248
     30.05000000	     -1.31564870	      2.36406481	      5.08253519	      0.56203661	      1.00591410	      0.85311030	    -14.25264589	     -2.05119612	     -3.26277497	     19.50464090	      0.34042020	     10.73818022	     -6.61335371	     -7.49999987	     33.00756484	      4.85976007	      5.19084516	     36.32253386	      0.63394781	      8.37039340	     -5.73498355	     -7.49999987	    -13.71501604	      1.46185456	      2.28472871	      9.95469298	    -13.25665035	      4.93178794	     29.95680740	     72.43169777	     -2.04748998	     -6.19626461	     -0.88287534	     21.95137319	     68.20727126
     30.06666670	     -1.75096391	      2.89124075	      4.96210609	      0.56360300	      1.00617868	      0.85223685	    -12.74588688	     -2.94866057	     -2.38486772	     23.25245900	      0.40583197	      7.07038818	     -8.66919656	     -7.49999987	     32.53938211	      5.63771185	      5.37627350	     37.41436296	      0.65300382	      9.09336150	     -6.59109723	     -7.49999987	    -12.89624651	      0.75084551	      2.46615715	      9.19001421	    -12.75278921	      4.69757401	     28.49463668	     71.74454994	     -1.59075919	     -6.44900132	     -0.64683776	     21.87009234	     67.88988425
     30.08333330	     -2.36553919	      3.23686738	      5.13169832	      0.56439293	      1.00769248	      0.85310990	    -10.27311218	     -3.66690846	     -2.15011675	     28.09099066	      0.49028028	      2.74224602	    -10.13177935	     -7.49999987	     32.22299948	      6.31937340	      5.88418565	     38.20530329	      0.66680833	      9.98942789	     -7.38967474	     -7.49999987	    -12.01033415	      0.23716998	      2.56071259	      8.43383091	    -12.26777950	      4.71090086	     26.71218623	     71.51623829	     -1.19382838	     -6.93181060	      0.46963229	     22.48409015	     68.12018126
     30.10000000	     -2.92322504	      3.71656474	      4.98388804	      0.56491399	      1.01140646	      0.85409400	     -7.23752268	     -4.49909900	     -1.57193912	     33.44586375	      0.58374044	     -2.69389369	    -11.91396593	     -7.49999987	     31.67890674	      6.81334830	      5.95774271	     38.43769926	      0.67086441	     10.86408815	     -8.07110751	     -7.49999987	    -11.48078733	     -0.50913882	      2.61317833	      7.69787549	    -11.66001460	      4.70086143	     25.62594556	     71.58835315	     -0.74547501	     -7.40966677	      0.62789409	     23.00320176	     68.26115703
     30.11666670	     -3.72005000	      3.90166980	      4.61117450	      0.56538947	      1.01542295	      0.85314422	     -3.70478721	     -5.01196149	     -0.87745536	     38.46986037	      0.67142573	     -8.44839321	    -13.46830634	     -7.49999987	     31.27632691	      6.81219150	      5.70211355	     38.23042334	      0.66724676	     11.76482858	     -8.53956990	     -7.49999987	    -10.62635324	     -0.86165491	      2.87924592	      7.13181799	    -11.01764462	      4.55014460	     23.92902194	     71.67127680	     -0.27147806	     -7.80476662	      0.89087213	     23.49634023	     68.49136532
     30.13333330	     -4.53487458	      3.99469451	      4.26180729	      0.56590786	      1.01751969	      0.85072121	     -0.17931450	     -5.34906999	     -0.27884524	     42.84891087	      0.74785458	    -12.98935709	    -14.14358657	     -7.49999987	     30.72097840	      6.70861482	      5.37472306	     37.54826273	      0.65534081	     12.65022272	     -8.63769579	     -7.49999987	     -9.71124497	     -1.07316184	      3.07092069	      6.62471995	    -10.47797582	      4.14702661	     21.95214735	     71.76386443	      0.26401329	     -8.13883264	      1.19203689	     24.27255470	     68.83826692
     30.15000000	     -4.84253380	      4.37944949	      3.84290042	      0.56577930	      1.01753480	      0.84863843	      2.95509389	     -5.97895493	      0.16403051	     47.05306914	      0.82123098	    -15.88667815	    -14.41984918	     -7.49999987	     29.44448550	      6.81418767	      4.76377017	     36.40906920	      0.63545814	     13.24301858	     -8.58936628	     -7.49999987	     -9.48921921	     -1.55883819	      3.10651141	      6.14877063	    -10.02840893	      3.57688287	     20.64488777	     71.22730875	      0.88842284	     -8.49427825	      0.93758986	     25.41899786	     68.65316436
     30.16666670	     -5.20589543	      4.59767553	      3.39269919	      0.56475871	      1.01672910	      0.84762026	      6.63964859	     -6.36312755	      0.72108906	     51.65371563	      0.90152741	    -17.75242761	    -15.63365105	     -7.49999987	     28.29723576	      6.76314473	      4.12036346	     35.29039126	      0.61593352	     13.58945757	     -8.51344018	     -7.49999987	     -9.35486079	     -1.94202787	      3.48187237	      5.17142876	     -9.96405206	      3.25647052	     20.63620660	     70.50065666	      1.38162848	     -8.78512427	      0.43178114	     27.48908402	     68.11385321
